<svg xmlns="http://www.w3.org/2000/svg" width="1024" height="1024" viewBox="0 0 1024 1024">
	<defs>
		<linearGradient id="background" x1="168" y1="116" x2="856" y2="908" gradientUnits="userSpaceOnUse">
			<stop offset="0" stop-color="#2dd4bf" />
			<stop offset="0.48" stop-color="#2563eb" />
			<stop offset="1" stop-color="#111827" />
		</linearGradient>
		<filter id="shadow" x="-18%" y="-18%" width="136%" height="136%" color-interpolation-filters="sRGB">
			<feDropShadow dx="0" dy="40" stdDeviation="42" flood-color="#020617" flood-opacity="0.45" />
		</filter>
	</defs>

	<rect width="1024" height="1024" rx="224" fill="url(#background)" />

	<g transform="translate(142 156) scale(30.8)" fill="none" stroke="#f8fafc" stroke-width="2" stroke-linecap="round" stroke-linejoin="round" filter="url(#shadow)">
		<path d="M14 18a2 2 0 0 0-4 0" />
		<path d="m19 11-2.11-6.657a2 2 0 0 0-2.752-1.148l-1.276.61A2 2 0 0 1 12 4H8.5a2 2 0 0 0-1.925 1.456L5 11" />
		<path d="M2 11h20" />
		<circle cx="17" cy="18" r="3" />
		<circle cx="7" cy="18" r="3" />
	</g>
</svg>
